<svg width="28" height="28" viewBox="0 0 28 28" fill="none" xmlns="http://www.w3.org/2000/svg">
<path fill-rule="evenodd" clip-rule="evenodd" d="M7.34358 0.41542C3.67694 0.856898 0.856899 3.67694 0.415421 7.34358C0.181489 9.28647 0 11.5752 0 14C0 16.4687 0.188111 18.7963 0.428161 20.7615C0.869152 24.3717 3.62329 27.1577 7.23455 27.5906C9.16193 27.8216 11.4695 28 14 28C16.4894 28 18.763 27.8274 20.6712 27.6018C24.3326 27.169 27.1155 24.3233 27.5644 20.6638C27.808 18.6778 28 16.3629 28 14C28 11.6788 27.8147 9.40401 27.5772 7.44175C27.1276 3.72584 24.2785 0.845752 20.5616 0.404082C18.6393 0.17565 16.3855 0 14 0C11.5752 0 9.28647 0.181489 7.34358 0.41542ZM14 21C13.4477 21 13 20.5523 13 20V15H8C7.44772 15 7 14.5523 7 14C7 13.4477 7.44772 13 8 13H13V8C13 7.44772 13.4477 7 14 7C14.5523 7 15 7.44772 15 8V13H20C20.5523 13 21 13.4477 21 14C21 14.5523 20.5523 15 20 15H15V20C15 20.5523 14.5523 21 14 21Z" fill="currentColor"/>
</svg>
