<svg width="132" height="32" viewBox="0 0 132 32" fill="none" xmlns="http://www.w3.org/2000/svg">
<rect opacity="0.5" width="32" height="32" rx="16" transform="matrix(1 0 0 -1 100 32)" fill="url(#paint0_linear_1_5972)"/>
<rect opacity="0.5" width="32" height="32" rx="16" transform="matrix(1 0 0 -1 0 32)" fill="url(#paint1_linear_1_5972)"/>
<rect opacity="0.5" x="64" width="16" height="32" rx="8" fill="url(#paint2_linear_1_5972)"/>
<rect opacity="0.5" width="16" height="32" rx="8" transform="matrix(1 0 0 -1 40 32)" fill="url(#paint3_linear_1_5972)"/>
<rect opacity="0.5" x="16" width="16" height="32" rx="8" fill="url(#paint4_linear_1_5972)"/>
<rect opacity="0.5" x="64" y="16" width="16" height="32" rx="8" transform="rotate(-90 64 16)" fill="url(#paint5_linear_1_5972)"/>
<defs>
<linearGradient id="paint0_linear_1_5972" x1="16" y1="0" x2="16" y2="32" gradientUnits="userSpaceOnUse">
<stop stop-color="#A154F2"/>
<stop offset="1" stop-color="#6202EE"/>
</linearGradient>
<linearGradient id="paint1_linear_1_5972" x1="16" y1="0" x2="16" y2="32" gradientUnits="userSpaceOnUse">
<stop stop-color="#A154F2"/>
<stop offset="1" stop-color="#6202EE"/>
</linearGradient>
<linearGradient id="paint2_linear_1_5972" x1="72" y1="0" x2="72" y2="32" gradientUnits="userSpaceOnUse">
<stop stop-color="#A154F2"/>
<stop offset="1" stop-color="#6202EE"/>
</linearGradient>
<linearGradient id="paint3_linear_1_5972" x1="8" y1="0" x2="8" y2="32" gradientUnits="userSpaceOnUse">
<stop stop-color="#A154F2"/>
<stop offset="1" stop-color="#6202EE"/>
</linearGradient>
<linearGradient id="paint4_linear_1_5972" x1="24" y1="0" x2="24" y2="32" gradientUnits="userSpaceOnUse">
<stop stop-color="#A154F2"/>
<stop offset="1" stop-color="#6202EE"/>
</linearGradient>
<linearGradient id="paint5_linear_1_5972" x1="72" y1="16" x2="72" y2="48" gradientUnits="userSpaceOnUse">
<stop stop-color="#6202EE"/>
<stop offset="1" stop-color="#8643E8"/>
</linearGradient>
</defs>
</svg>
