<svg width="7" height="8" viewBox="0 0 7 8" fill="none" xmlns="http://www.w3.org/2000/svg">
<path d="M5.80715 7.37266L3.42561 4.98997L1.04406 7.37266C0.964708 7.45154 0.857374 7.4958 0.745508 7.4958C0.633643 7.4958 0.526308 7.45154 0.446952 7.37266L0.149279 7.07479C0.109881 7.03585 0.0785846 6.98948 0.0572359 6.93835C0.0358871 6.88723 0.0248936 6.83239 0.0248936 6.77699C0.0248936 6.72158 0.0358871 6.66669 0.0572359 6.61556C0.0785846 6.56444 0.109881 6.51806 0.149279 6.47912L2.53082 4.09649L0.149279 1.71386C0.109881 1.67492 0.0785846 1.62854 0.0572359 1.57742C0.0358871 1.52629 0.0248936 1.47145 0.0248936 1.41605C0.0248936 1.36064 0.0358871 1.30575 0.0572359 1.25463C0.0785846 1.2035 0.109881 1.15713 0.149279 1.11819L0.446952 0.820376C0.486021 0.780909 0.532554 0.749568 0.583797 0.728187C0.63504 0.706806 0.689987 0.695778 0.745508 0.695778C0.801029 0.695778 0.855977 0.706806 0.907219 0.728187C0.958462 0.749568 1.005 0.780909 1.04406 0.820376L3.42561 3.20301L5.80715 0.820376C5.84622 0.780909 5.89275 0.749568 5.94399 0.728187C5.99524 0.706806 6.05018 0.695778 6.1057 0.695778C6.16123 0.695778 6.21617 0.706806 6.26742 0.728187C6.31866 0.749568 6.36519 0.780909 6.40426 0.820376L6.70193 1.11819C6.78067 1.19729 6.82492 1.30441 6.82492 1.41605C6.82492 1.52769 6.78067 1.63475 6.70193 1.71386L4.32039 4.09649L6.70193 6.47912C6.78067 6.55823 6.82492 6.66535 6.82492 6.77699C6.82492 6.88862 6.78067 6.99569 6.70193 7.07479L6.40426 7.37266C6.3249 7.45154 6.21757 7.4958 6.1057 7.4958C5.99384 7.4958 5.8865 7.45154 5.80715 7.37266Z" fill="currentColor"/>
</svg>
