<svg width="17" height="17" viewBox="0 0 17 17" fill="none" xmlns="http://www.w3.org/2000/svg">
<path d="M14.5133 2.48678C11.1977 -0.828765 5.80266 -0.829092 2.48678 2.48678C-0.829092 5.80266 -0.828765 11.1974 2.48678 14.5133C5.80233 17.8292 11.1974 17.8292 14.5133 14.5133C17.8288 11.1974 17.8288 5.80233 14.5133 2.48678ZM11.8535 11.8535C11.5981 12.109 11.184 12.109 10.9286 11.8535L8.50004 9.42501L5.95606 11.969C5.70061 12.2244 5.28654 12.2244 5.03109 11.969C4.77565 11.7135 4.77565 11.2995 5.03109 11.044L7.57507 8.50004L5.14655 6.07152C4.89111 5.81607 4.89111 5.40167 5.14655 5.14655C5.402 4.89111 5.81607 4.89111 6.07152 5.14655L8.50004 7.57507L10.8128 5.26233C11.0682 5.00689 11.4823 5.00689 11.7377 5.26233C11.9932 5.51778 11.9932 5.93185 11.7377 6.1873L9.42501 8.50004L11.8535 10.9286C12.109 11.184 12.109 11.5981 11.8535 11.8535Z" fill="#EB5757"/>
</svg>
