<svg width="18" height="24" viewBox="0 0 18 24" fill="none" xmlns="http://www.w3.org/2000/svg">
<path d="M8.99996 0.352943C4.34819 0.352943 0.563721 4.13742 0.563721 8.78914C0.563721 14.5621 8.11333 23.0371 8.43476 23.395C8.73668 23.7313 9.2638 23.7307 9.56516 23.395C9.88659 23.0371 17.4362 14.5621 17.4362 8.78914C17.4361 4.13742 13.6517 0.352943 8.99996 0.352943ZM8.99996 13.0336C6.65954 13.0336 4.75552 11.1296 4.75552 8.78914C4.75552 6.44872 6.65959 4.5447 8.99996 4.5447C11.3403 4.5447 13.2444 6.44876 13.2444 8.78918C13.2444 11.1296 11.3403 13.0336 8.99996 13.0336Z" fill="currentColor"/>
</svg>
