<svg width="22" height="22" viewBox="0 0 22 22" fill="none" xmlns="http://www.w3.org/2000/svg">
<path fill-rule="evenodd" clip-rule="evenodd" d="M0 12H2.05493C2.51608 16.1716 5.82838 19.4839 10 19.9451V22H12V19.9451C16.1716 19.4839 19.4839 16.1716 19.9451 12H22V10H19.9451C19.4839 5.82838 16.1716 2.51608 12 2.05493V0H10V2.05493C5.82838 2.51608 2.51608 5.82838 2.05493 10H0V12ZM4 11C4 7.13401 7.13401 4 11 4C14.866 4 18 7.13401 18 11C18 14.866 14.866 18 11 18C7.13401 18 4 14.866 4 11ZM11 7C13.2091 7 15 8.79086 15 11C15 13.2091 13.2091 15 11 15C8.79086 15 7 13.2091 7 11C7 8.79086 8.79086 7 11 7ZM9 11C9 9.89543 9.89543 9 11 9C12.1046 9 13 9.89543 13 11C13 12.1046 12.1046 13 11 13C9.89543 13 9 12.1046 9 11Z" fill="currentColor"/>
</svg>
