<svg width="32" height="30" viewBox="0 0 32 30" fill="none" xmlns="http://www.w3.org/2000/svg">
<path d="M29.1875 16.8126V15.625C29.1875 14.4028 28.4037 13.3608 27.3125 12.9738V1.875C27.3125 1.35725 26.8927 0.9375 26.375 0.9375C25.8573 0.9375 25.4375 1.35725 25.4375 1.875V12.9738C24.3463 13.3608 23.5625 14.4028 23.5625 15.625V16.8126H8.4375V15.625C8.4375 14.4028 7.65369 13.3608 6.5625 12.9738V1.875C6.5625 1.35725 6.14275 0.9375 5.625 0.9375C5.10725 0.9375 4.6875 1.35725 4.6875 1.875V12.9738C3.59631 13.3608 2.8125 14.4028 2.8125 15.625V16.8126C1.26169 16.8126 0 18.0742 0 19.625V25.2501C0 26.5749 0.921062 27.6879 2.15625 27.9844V28.125C2.15625 28.6427 2.576 29.0625 3.09375 29.0625C3.6115 29.0625 4.03125 28.6427 4.03125 28.125V28.0625H27.9688V28.125C27.9688 28.6427 28.3885 29.0625 28.9062 29.0625C29.424 29.0625 29.8438 28.6427 29.8438 28.125V27.9844C31.0789 27.6879 32 26.5748 32 25.2501V19.625C32 18.0742 30.7383 16.8126 29.1875 16.8126ZM25.4375 15.625C25.4375 15.1081 25.8581 14.6875 26.375 14.6875C26.8919 14.6875 27.3125 15.1081 27.3125 15.625V16.8125H25.4375V15.625ZM4.6875 15.625C4.6875 15.1081 5.10806 14.6875 5.625 14.6875C6.14194 14.6875 6.5625 15.1081 6.5625 15.625V16.8125H4.6875V15.625ZM30.125 25.2501C30.125 25.767 29.7044 26.1875 29.1875 26.1875H2.8125C2.29556 26.1875 1.875 25.7669 1.875 25.2501V19.625C1.875 19.1081 2.29556 18.6876 2.8125 18.6876H29.1875C29.7044 18.6876 30.125 19.1081 30.125 19.625V25.2501Z" fill="currentColor"/>
<path d="M4.6875 21.5C4.17112 21.5 3.75 21.9212 3.75 22.4375C3.75 22.9539 4.17112 23.375 4.6875 23.375C5.20388 23.375 5.625 22.9539 5.625 22.4375C5.62506 21.9212 5.20388 21.5 4.6875 21.5Z" fill="currentColor"/>
<path d="M8.43751 21.5C7.92113 21.5 7.5 21.9212 7.5 22.4375C7.5 22.9539 7.92113 23.375 8.43751 23.375C8.95388 23.375 9.37501 22.9539 9.37501 22.4375C9.37501 21.9212 8.95388 21.5 8.43751 21.5Z" fill="currentColor"/>
<path d="M12.1875 21.5C11.6711 21.5 11.25 21.9212 11.25 22.4375C11.25 22.9539 11.6711 23.375 12.1875 23.375C12.7039 23.375 13.125 22.9539 13.125 22.4375C13.125 21.9212 12.7039 21.5 12.1875 21.5Z" fill="currentColor"/>
<path d="M27.3125 21.5H17.4375C16.9197 21.5 16.5 21.9197 16.5 22.4375C16.5 22.9553 16.9197 23.375 17.4375 23.375H27.3125C27.8302 23.375 28.25 22.9553 28.25 22.4375C28.25 21.9197 27.8302 21.5 27.3125 21.5Z" fill="currentColor"/>
</svg>
