<svg width="18" height="21" viewBox="0 0 18 21" fill="none" xmlns="http://www.w3.org/2000/svg">
<path fill-rule="evenodd" clip-rule="evenodd" d="M15.3 8.75C15.3 5.19823 13.2855 2.73308 10.6789 1.993C10.5845 1.75557 10.4353 1.53484 10.2326 1.34963C9.53977 0.716791 8.46026 0.716791 7.76748 1.34963C7.56517 1.53443 7.41621 1.75459 7.3218 1.99143C4.71183 2.72826 2.7 5.18804 2.7 8.75C2.7 11.0547 2.22208 12.3461 1.33736 13.2819C1.18944 13.4384 0.788669 13.7968 0.517192 14.0396L0.517156 14.0397L0.51694 14.0399C0.388622 14.1546 0.289235 14.2435 0.259168 14.273L0 14.5285V17.5123H5.47918C5.66445 18.4416 6.18308 19.0633 7.12098 19.6198C8.27473 20.3043 9.72527 20.3043 10.879 19.6198C11.7067 19.1287 12.2617 18.374 12.4869 17.5123H18V14.5285L17.7408 14.273C17.7135 14.2461 17.6181 14.1604 17.4933 14.0485C17.2227 13.8058 16.814 13.4393 16.6638 13.2798C15.7785 12.3396 15.3 11.0466 15.3 8.75ZM10.563 17.5123H7.36076C7.48791 17.7423 7.70464 17.9159 8.05861 18.126C8.63664 18.4689 9.36336 18.4689 9.94139 18.126C10.2091 17.9672 10.4182 17.757 10.563 17.5123ZM15.3362 14.4615C15.5255 14.6626 15.9315 15.0303 16.2 15.2704V15.7623H1.8V15.2708C2.06646 15.0335 2.47359 14.6661 2.66264 14.4661C3.8648 13.1945 4.5 11.4781 4.5 8.75C4.5 5.44241 6.59949 3.51083 9 3.51083C11.3937 3.51083 13.5 5.45238 13.5 8.75C13.5 11.4693 14.1354 13.1863 15.3362 14.4615Z" fill="currentColor"/>
</svg>
