<svg width="14" height="14" viewBox="0 0 14 14" fill="none" xmlns="http://www.w3.org/2000/svg">
<path fill-rule="evenodd" clip-rule="evenodd" d="M9.82054 8.50004H9.20368L8.98925 8.29454C9.74674 7.44179 10.2074 6.33629 10.2074 5.12504C10.2074 2.43254 7.94665 0.250036 5.15755 0.250036C2.36846 0.250036 0.107666 2.43254 0.107666 5.12504C0.107666 7.81754 2.36846 10 5.15755 10C6.41226 10 7.55664 9.55604 8.43998 8.82554L8.65441 9.03104V9.62504L12.5374 13.3683L13.6957 12.25L9.82054 8.50004ZM5.15755 8.50004C3.22617 8.50004 1.66148 6.98954 1.66148 5.12504C1.66148 3.26129 3.22617 1.75004 5.15755 1.75004C7.08816 1.75004 8.65363 3.26129 8.65363 5.12504C8.65363 6.98954 7.08816 8.50004 5.15755 8.50004Z" fill="currentColor"/>
</svg>
