<svg width="24" height="24" viewBox="0 0 24 24" fill="none" xmlns="http://www.w3.org/2000/svg">
<g clip-path="url(#clip0_1_15227)">
<path d="M11.9998 6.2627C8.83643 6.2627 6.2627 8.83643 6.2627 11.9998C6.2627 15.1631 8.83643 17.7368 11.9998 17.7368C15.1631 17.7368 17.7368 15.1631 17.7368 11.9998C17.7368 8.83643 15.1631 6.2627 11.9998 6.2627ZM11.9998 16.3026C9.62726 16.3026 7.69696 14.3723 7.69696 11.9998C7.69696 9.62726 9.62726 7.69696 11.9998 7.69696C14.3723 7.69696 16.3026 9.62726 16.3026 11.9998C16.3026 14.3723 14.3723 16.3026 11.9998 16.3026Z" fill="currentColor"/>
<path d="M23.4353 9.26733L21.5907 8.86633C21.4303 8.37524 21.2316 7.89624 20.9971 7.43481L22.0182 5.84637C22.2006 5.56256 22.1605 5.18994 21.9221 4.95154L19.0485 2.07788C18.8101 1.83948 18.4374 1.79938 18.1536 1.98175L16.5652 3.00293C16.1038 2.76837 15.6248 2.5697 15.1337 2.4093L14.7327 0.564697C14.6611 0.235107 14.3692 0 14.0319 0H9.96808C9.6308 0 9.33893 0.235107 9.26733 0.564697L8.86633 2.4093C8.37524 2.5697 7.89624 2.76837 7.43481 3.00293L5.84637 1.98175C5.56256 1.79938 5.18994 1.83948 4.95154 2.07788L2.07788 4.95154C1.83948 5.18994 1.79938 5.56256 1.98175 5.84637L3.00293 7.43481C2.76837 7.89624 2.5697 8.37524 2.4093 8.86633L0.564697 9.26733C0.235107 9.33911 0 9.6308 0 9.96808V14.0319C0 14.3692 0.235107 14.6609 0.564697 14.7327L2.4093 15.1337C2.5697 15.6248 2.76837 16.1038 3.00293 16.5652L1.98175 18.1536C1.79938 18.4374 1.83948 18.8101 2.07788 19.0485L4.95154 21.9221C5.18994 22.1605 5.56256 22.2006 5.84637 22.0182L7.43481 20.9971C7.89624 21.2316 8.37524 21.4303 8.86633 21.5907L9.26733 23.4353C9.33893 23.7649 9.6308 24 9.96808 24H14.0319C14.3692 24 14.6611 23.7649 14.7327 23.4353L15.1337 21.5907C15.6248 21.4303 16.1038 21.2316 16.5652 20.9971L18.1536 22.0182C18.4374 22.2006 18.8101 22.1607 19.0485 21.9221L21.9221 19.0485C22.1605 18.8101 22.2006 18.4374 22.0182 18.1536L20.9971 16.5652C21.2316 16.1038 21.4303 15.6248 21.5907 15.1337L23.4353 14.7327C23.7649 14.6609 24 14.3692 24 14.0319V9.96808C24 9.6308 23.7649 9.33911 23.4353 9.26733ZM22.5657 13.4539L20.8744 13.8215C20.6146 13.8781 20.4073 14.0737 20.3359 14.3297C20.15 14.9963 19.8827 15.6411 19.5414 16.2458C19.4106 16.4775 19.4187 16.7624 19.5626 16.9861L20.4992 18.4429L18.4431 20.4992L16.9861 19.5626C16.7624 19.4187 16.4775 19.4106 16.246 19.5414C15.6411 19.8827 14.9963 20.15 14.3297 20.3359C14.0737 20.4073 13.8781 20.6146 13.8215 20.8744L13.4539 22.5657H10.5461L10.1785 20.8744C10.1219 20.6146 9.92633 20.4073 9.67035 20.3359C9.00366 20.15 8.35895 19.8827 7.75415 19.5414C7.52252 19.4106 7.23761 19.4189 7.01385 19.5626L5.55707 20.4992L3.50098 18.4429L4.43738 16.9861C4.5813 16.7624 4.58954 16.4775 4.4588 16.2458C4.11749 15.6411 3.85016 14.9963 3.66412 14.3297C3.59271 14.0737 3.38562 13.8781 3.12579 13.8215L1.43427 13.4539V10.5461L3.12561 10.1785C3.38544 10.1219 3.59271 9.92633 3.66412 9.67035C3.84998 9.00366 4.11731 8.35895 4.45862 7.75415C4.58936 7.52252 4.5813 7.23761 4.43738 7.01385L3.50079 5.55707L5.55688 3.50079L7.01385 4.43738C7.23761 4.5813 7.52252 4.58936 7.75397 4.45862C8.35895 4.11731 9.00366 3.84998 9.67035 3.66412C9.92633 3.59271 10.1219 3.38544 10.1785 3.12561L10.5461 1.43427H13.4539L13.8215 3.12561C13.8781 3.38544 14.0737 3.59271 14.3297 3.66412C14.9963 3.84998 15.6411 4.11731 16.2458 4.45862C16.4775 4.58936 16.7624 4.58112 16.9861 4.43738L18.4429 3.50079L20.499 5.55707L19.5626 7.01385C19.4187 7.23761 19.4105 7.52252 19.5412 7.75415C19.8827 8.35895 20.1498 9.00366 20.3359 9.67035C20.4073 9.92633 20.6144 10.1219 20.8742 10.1785L22.5657 10.5461V13.4539Z" fill="currentColor"/>
</g>
<defs>
<clipPath id="clip0_1_15227">
<rect width="24" height="24" fill="currentColor"/>
</clipPath>
</defs>
</svg>
