<svg width="13" height="4" viewBox="0 0 13 4" fill="none" xmlns="http://www.w3.org/2000/svg">
<path d="M3.15879 2.07732C3.15879 2.8753 2.51189 3.52219 1.71391 3.52219C0.915934 3.52219 0.269043 2.8753 0.269043 2.07732C0.269043 1.27934 0.915934 0.632446 1.71391 0.632446C2.51189 0.632446 3.15879 1.27934 3.15879 2.07732Z" fill="currentColor"/>
<path d="M7.97502 2.07732C7.97502 2.8753 7.32813 3.52219 6.53015 3.52219C5.73217 3.52219 5.08528 2.8753 5.08528 2.07732C5.08528 1.27934 5.73217 0.632446 6.53015 0.632446C7.32813 0.632446 7.97502 1.27934 7.97502 2.07732Z" fill="currentColor"/>
<path d="M12.7913 2.07732C12.7913 2.8753 12.1444 3.52219 11.3464 3.52219C10.5484 3.52219 9.90152 2.8753 9.90152 2.07732C9.90152 1.27934 10.5484 0.632446 11.3464 0.632446C12.1444 0.632446 12.7913 1.27934 12.7913 2.07732Z" fill="currentColor"/>
</svg>
