<svg width="142" height="98" viewBox="0 0 142 98" fill="none" xmlns="http://www.w3.org/2000/svg">
<path d="M34.8543 15.8751C32.1118 18.4557 31.98 22.7707 34.5599 25.5139L45.1907 36.8174C46.5318 38.2433 45.5208 40.582 43.5633 40.582H6.81335C3.05044 40.582 0 43.6325 0 47.3954V47.3954C0 51.1583 3.05044 54.2087 6.81335 54.2087H43.563C45.5206 54.2087 46.5317 56.5475 45.1905 57.9735L34.5599 69.2769C31.98 72.0201 32.1116 76.3351 34.854 78.9159V78.9159C37.5979 81.498 41.9157 81.3659 44.4966 78.621L67.4149 54.2459C71.0343 50.3964 71.0343 44.3954 67.4149 40.5459L44.4961 16.1703C41.9154 13.4256 37.598 13.2934 34.8543 15.8751V15.8751Z" fill="url(#paint0_linear_1_6381)"/>
<path d="M54.8 82.0656C54.8 78.7157 57.5156 76 60.8655 76H62.1462C64.7888 76 66.9311 78.1423 66.9311 80.7849V80.7849C66.9311 83.4275 69.0733 85.5698 71.7159 85.5698H98C115.159 85.5698 129.069 71.6598 129.069 54.5009V43.4992C129.069 26.3403 115.159 12.4303 97.9999 12.4303H71.7159C69.0733 12.4303 66.9311 14.5725 66.9311 17.2151V17.2151C66.9311 19.8578 64.7888 22 62.1462 22H60.8655C57.5156 22 54.8 19.2844 54.8 15.9345V11.2C54.8 5.23535 59.6353 0.400024 65.6 0.400024H101.2C123.291 0.400024 141.2 18.3086 141.2 40.4V57.6C141.2 79.6914 123.291 97.6 101.2 97.6H65.6C59.6353 97.6 54.8 92.7647 54.8 86.8V82.0656Z" fill="url(#paint1_linear_1_6381)"/>
<defs>
<linearGradient id="paint0_linear_1_6381" x1="36.9278" y1="11.2" x2="36.9278" y2="83.5918" gradientUnits="userSpaceOnUse">
<stop stop-color="#A154F2"/>
<stop offset="1" stop-color="#6202EE"/>
</linearGradient>
<linearGradient id="paint1_linear_1_6381" x1="98" y1="0.400024" x2="98" y2="97.6" gradientUnits="userSpaceOnUse">
<stop stop-color="#A154F2"/>
<stop offset="1" stop-color="#6202EE"/>
</linearGradient>
</defs>
</svg>
